<?xml version="1.0" standalone="no"?>
<!DOCTYPE svg PUBLIC "-//W3C//DTD SVG 20010904//EN"
 "http://www.w3.org/TR/2001/REC-SVG-20010904/DTD/svg10.dtd">
<svg version="1.0" xmlns="http://www.w3.org/2000/svg"
 width="184.000000pt" height="184.000000pt" viewBox="0 0 184.000000 184.000000"
 preserveAspectRatio="xMidYMid meet">
<metadata>
Created by potrace 1.11, written by Peter Selinger 2001-2013
</metadata>
<g transform="translate(0.000000,184.000000) scale(0.100000,-0.100000)"
fill="#000000" stroke="none">
<path d="M1602 1818 c18 -31 24 -39 53 -72 14 -16 25 -34 25 -41 0 -12 31 -45
43 -45 3 0 8 8 11 18 3 9 3 1 0 -19 -3 -29 1 -41 20 -60 14 -14 34 -50 46 -79
12 -30 25 -59 30 -64 5 -5 9 61 9 156 l1 165 -30 32 c-30 30 -32 31 -125 31
l-95 0 12 -22z m107 -104 c3 -16 1 -17 -13 -5 -19 16 -21 34 -3 29 6 -3 14
-13 16 -24z m88 -44 c13 -24 23 -46 23 -50 0 -12 -44 -4 -48 8 -2 7 -7 10 -11
8 -3 -2 -6 15 -6 40 0 53 12 52 42 -6z m23 -95 c0 -8 -4 -15 -10 -15 -5 0 -10
7 -10 15 0 8 5 15 10 15 6 0 10 -7 10 -15z"/>
<path d="M1090 1576 c0 -12 -7 -13 -32 -5 -41 11 -41 11 -33 -1 3 -5 -4 -10
-17 -10 -86 -1 -158 -18 -158 -39 0 -5 -17 -13 -37 -19 -61 -17 -107 -36 -138
-56 -54 -35 -137 -110 -126 -114 6 -2 11 -8 11 -14 0 -6 -7 -7 -16 -4 -8 3
-13 2 -10 -3 3 -4 -7 -14 -22 -20 -26 -12 -26 -13 -7 -27 10 -8 14 -14 8 -14
-5 0 -31 -20 -57 -45 -42 -41 -46 -49 -42 -83 3 -20 5 -37 6 -37 1 0 3 -8 5
-19 2 -10 8 -23 14 -29 6 -6 11 -22 11 -35 0 -27 17 -62 37 -77 8 -6 15 -20
16 -33 0 -12 5 -22 9 -22 4 0 8 -7 8 -15 0 -8 8 -15 18 -15 13 0 14 -2 4 -9
-11 -6 -10 -12 5 -26 10 -10 18 -23 18 -28 0 -6 8 -13 17 -16 23 -8 11 -24
-32 -41 -19 -8 -55 -32 -80 -53 -25 -22 -60 -46 -78 -54 -18 -7 -35 -20 -39
-28 -3 -8 -11 -15 -19 -15 -8 0 -14 -7 -14 -15 0 -8 -7 -15 -15 -15 -8 0 -15
-7 -15 -15 0 -8 -7 -15 -15 -15 -8 0 -19 -9 -25 -20 -6 -11 -17 -20 -25 -20
-8 0 -15 -4 -15 -10 0 -5 -11 -12 -25 -16 -14 -3 -29 -11 -33 -18 -4 -6 -25
-24 -47 -40 -22 -16 -55 -43 -73 -59 l-32 -31 0 -148 0 -148 479 0 479 0 -14
29 c-8 16 -21 34 -29 41 -8 7 -15 23 -15 35 0 13 -7 36 -15 51 -8 16 -15 23
-15 16 0 -8 -27 12 -60 43 -32 32 -58 60 -58 64 4 17 -15 90 -22 86 -5 -3 -12
0 -16 6 -4 8 -9 7 -16 -2 -7 -11 -8 -11 -7 1 4 25 -12 81 -22 74 -5 -3 -9 6
-9 20 0 14 -4 28 -10 31 -5 3 -10 17 -10 30 0 18 -4 23 -15 19 -24 -10 -17 10
13 39 l29 27 11 -25 c11 -25 13 -25 37 -9 27 18 32 30 13 36 -6 2 -13 22 -14
43 -4 40 -23 63 -36 42 -5 -7 -8 -1 -8 16 0 15 -9 36 -20 47 -11 11 -20 27
-20 35 0 9 -8 28 -18 42 -20 32 -23 70 -5 77 7 3 12 2 11 -2 -1 -4 5 -23 14
-42 8 -19 18 -52 22 -72 4 -21 11 -38 16 -38 5 0 11 -8 14 -17 8 -31 -5 80
-16 132 -8 36 -8 50 1 53 6 2 11 10 11 18 0 8 11 20 25 26 14 6 25 17 25 23 0
7 21 20 48 30 26 10 54 24 62 31 9 7 26 11 38 7 23 -6 31 11 10 21 -7 4 -3 4
10 2 22 -4 96 26 107 43 3 6 13 7 22 4 11 -4 14 -3 9 5 -4 7 -1 12 7 12 7 0
23 9 36 21 12 12 25 18 29 15 3 -4 25 13 49 36 l44 43 46 -48 c26 -27 69 -59
97 -71 45 -20 85 -55 187 -163 15 -15 32 -47 39 -70 11 -36 10 -46 -8 -85 -27
-58 -46 -172 -57 -341 -5 -68 -20 -121 -46 -159 -11 -14 -19 -31 -19 -37 0 -6
-4 -11 -8 -11 -5 0 -17 -18 -27 -40 -13 -28 -21 -37 -27 -28 -5 9 -8 8 -8 -6
0 -12 -5 -16 -16 -12 -9 3 -20 6 -25 6 -6 0 -7 4 -4 10 7 11 -9 13 -42 4 -30
-8 -19 -24 15 -24 36 0 60 -15 38 -23 -20 -8 -21 -27 -2 -27 8 0 13 -6 11 -12
-10 -43 -19 -58 -34 -58 -14 0 -14 -2 -1 -10 12 -8 12 -11 -3 -28 -9 -10 -17
-22 -17 -25 0 -4 124 -7 276 -7 l276 0 -4 59 c-4 59 -37 119 -65 120 -7 1 -13
5 -13 11 0 5 -10 18 -22 30 -12 11 -18 20 -14 20 4 0 -3 11 -16 24 -46 46 -68
76 -68 91 0 8 -5 15 -11 15 -25 0 -40 72 -40 190 0 127 16 212 53 284 12 23
24 71 28 108 9 79 -6 134 -46 176 -14 15 -34 43 -44 62 -11 19 -37 50 -60 68
-22 18 -40 40 -40 48 0 8 -4 14 -10 14 -5 0 -10 5 -10 11 0 6 9 8 20 4 11 -3
20 -4 20 -1 0 8 -74 75 -82 76 -5 0 -25 17 -47 39 -22 22 -59 45 -88 55 -27 9
-57 26 -67 37 -15 18 -20 19 -27 8 -7 -12 -9 -12 -9 0 0 8 -3 11 -6 8 -4 -3
-18 3 -32 13 -29 23 -52 26 -52 6z m57 -169 c0 -9 -9 -12 -24 -9 -12 2 -20 8
-17 13 8 14 41 11 41 -4z m-490 -209 c-3 -8 -6 -5 -6 6 -1 11 2 17 5 13 3 -3
4 -12 1 -19z m-24 -68 c-3 -10 -11 -24 -19 -31 -12 -9 -12 -6 -3 20 12 34 30
43 22 11z m40 -722 c4 -12 4 -24 2 -27 -7 -7 -34 32 -29 41 9 15 22 8 27 -14z
m-275 -210 c20 -20 14 -36 -13 -30 -16 3 -25 11 -25 23 0 21 20 25 38 7z m400
-23 c-3 -3 -9 2 -12 12 -6 14 -5 15 5 6 7 -7 10 -15 7 -18z"/>
<path d="M909 916 c12 -13 37 -27 54 -31 31 -8 31 -8 -18 -17 -71 -13 -88 -28
-72 -61 14 -32 27 -35 27 -8 0 11 9 22 19 26 23 7 138 -30 163 -52 25 -23 38
-7 32 40 -3 23 -5 49 -5 58 0 9 -11 22 -25 29 -13 8 -24 17 -24 22 0 4 -21 8
-46 8 -33 0 -43 -3 -38 -12 5 -10 4 -10 -6 -1 -7 6 -18 9 -25 7 -7 -3 -16 -1
-20 5 -3 6 -13 11 -22 11 -13 0 -12 -4 6 -24z m135 -41 c3 -8 1 -15 -4 -15 -6
0 -10 7 -10 15 0 8 2 15 4 15 2 0 6 -7 10 -15z"/>
<path d="M1271 921 c-9 -6 -10 -11 -2 -15 6 -4 21 0 33 8 21 15 21 16 3 16
-11 0 -26 -4 -34 -9z"/>
<path d="M1325 911 c-11 -5 -20 -14 -20 -22 0 -9 -11 -14 -33 -13 -17 0 -32
-4 -32 -9 0 -6 -6 -18 -14 -26 -8 -9 -15 -36 -17 -61 -4 -75 0 -100 16 -100 8
0 15 3 16 8 3 31 12 59 34 102 31 61 62 73 97 38 19 -19 23 -20 26 -6 2 10 10
14 23 11 23 -6 24 0 3 33 -14 20 -64 56 -76 53 -2 0 -12 -4 -23 -8z m40 -41
c3 -6 -1 -7 -9 -4 -18 7 -21 14 -7 14 6 0 13 -4 16 -10z"/>
<path d="M947 692 c-22 -24 -21 -38 4 -63 14 -14 20 -31 18 -54 -2 -19 0 -37
4 -41 4 -4 7 8 7 27 0 52 9 59 55 49 53 -13 55 -12 55 5 0 10 -11 15 -35 15
-19 0 -35 5 -35 11 0 5 -4 7 -10 4 -6 -4 -9 3 -7 15 1 13 -7 28 -19 36 -18 13
-23 12 -37 -4z"/>
<path d="M1313 694 c-9 -23 9 -68 29 -72 25 -5 41 58 20 76 -22 17 -41 15 -49
-4z"/>
<path d="M705 550 c-3 -6 -4 -34 0 -63 10 -91 15 -105 33 -102 18 2 18 34 1
67 -5 9 -10 35 -11 58 -1 41 -11 59 -23 40z"/>
<path d="M1090 476 c0 -17 17 -32 54 -46 27 -10 28 -10 21 17 -8 33 -3 29 -42
36 -24 5 -33 3 -33 -7z"/>
<path d="M1240 430 c-13 -9 -11 -13 10 -29 30 -24 39 -20 32 14 -5 27 -17 31
-42 15z"/>
<path d="M1075 283 c-28 -7 -36 -16 -26 -31 5 -9 43 -14 120 -18 102 -4 112
-3 109 13 -2 11 -17 20 -38 24 -55 11 -143 17 -165 12z"/>
</g>
</svg>
