<?xml version="1.0" standalone="no"?>
<!DOCTYPE svg PUBLIC "-//W3C//DTD SVG 20010904//EN"
 "http://www.w3.org/TR/2001/REC-SVG-20010904/DTD/svg10.dtd">
<svg version="1.0" xmlns="http://www.w3.org/2000/svg"
 width="336.000000pt" height="336.000000pt" viewBox="0 0 336.000000 336.000000"
 preserveAspectRatio="xMidYMid meet">
<metadata>
Created by potrace 1.11, written by Peter Selinger 2001-2013
</metadata>
<g transform="translate(0.000000,336.000000) scale(0.100000,-0.100000)"
fill="#000000" stroke="none">
<path d="M1766 3317 c-14 -18 -28 -51 -32 -72 -3 -22 -14 -56 -24 -75 -55
-105 -95 -220 -110 -315 -16 -107 -49 -203 -78 -225 -31 -25 -75 -25 -128 -1
-74 33 -101 75 -153 231 -18 52 -37 100 -43 107 -5 7 -26 17 -46 23 -31 8 -39
7 -59 -12 -17 -16 -22 -30 -19 -52 8 -64 66 -284 87 -330 23 -54 102 -134 158
-163 20 -10 53 -31 73 -46 46 -35 45 -48 -12 -187 -45 -111 -136 -400 -145
-460 0 -3 -3 -9 -6 -15 -13 -20 -78 -312 -84 -370 -9 -98 -16 -260 -19 -412
-2 -115 1 -153 16 -200 26 -82 67 -243 73 -289 3 -22 8 -50 11 -64 2 -14 6
-36 9 -50 3 -14 10 -52 16 -85 17 -91 56 -208 79 -233 13 -13 33 -22 50 -22
39 0 116 36 139 66 24 31 18 99 -16 166 -23 46 -27 68 -33 217 -5 99 -14 185
-23 214 -8 26 -15 49 -15 50 -1 16 -19 70 -33 99 -10 20 -41 113 -68 207 -50
173 -57 233 -30 282 5 10 8 19 5 19 -8 0 33 111 49 137 48 72 129 -35 150
-198 7 -57 58 -142 107 -182 48 -38 118 -42 151 -8 19 19 22 32 21 99 -1 82
-20 145 -103 342 -69 166 -97 305 -96 482 0 74 4 90 25 122 15 21 37 40 55 45
56 15 166 1 217 -28 18 -11 80 -36 138 -56 255 -90 232 -85 367 -85 164 0 180
9 217 116 13 37 12 45 -5 83 -10 23 -24 43 -31 45 -23 8 -152 20 -213 20 -41
1 -66 6 -78 17 -10 9 -43 19 -74 23 -57 7 -200 51 -217 67 -6 5 -18 9 -27 9
-10 0 -19 3 -21 8 -1 4 -26 18 -54 31 -93 42 -177 145 -169 206 7 61 39 134
99 228 59 92 85 139 140 249 40 81 52 116 51 148 -2 45 -21 71 -57 75 -13 2
-45 10 -71 19 -67 23 -83 20 -111 -17z"/>
</g>
</svg>
